<svg width="134" height="178" xmlns="http://www.w3.org/2000/svg" xmlns:xlink="http://www.w3.org/1999/xlink" xml:space="preserve" overflow="hidden"><g><path d="M110.621 138.676C103.931 135.102 98.0766 131.833 97.5444 131.377 96.3279 130.389 96.2519 126.207 97.3923 126.207 98.4567 126.207 120.733 138.22 122.634 139.74 123.926 140.881 124.382 144.074 123.318 144.758 123.014 144.91 117.236 142.249 110.621 138.676Z" fill="#2F5597" transform="matrix(1 0 0 -1.00053 0.0950355 178)"/><path d="M39.0786 131.225C25.9257 124.154 25.0894 123.622 25.0894 121.265 25.0894 118.68 25.8496 118.452 29.1949 120.429 30.9435 121.417 35.8854 124.002 40.295 126.207 51.2431 131.757 52.4596 132.67 52.4596 135.407 52.4596 136.699 52.0794 137.611 51.5472 137.535 51.015 137.459 45.3889 134.646 39.0786 131.225Z" fill="#2F5597" transform="matrix(1 0 0 -1.00053 0.0950355 178)"/><path d="M109.633 129.324C103.703 126.131 98.3047 122.938 97.6965 122.33 96.7081 121.341 96.556 116.171 96.7081 83.4791L96.9362 45.6931 109.481 52.4596C116.323 56.185 122.406 59.8343 122.938 60.5186 123.698 61.583 123.926 70.0221 123.926 98.6088L123.926 135.33 122.254 135.254C121.265 135.178 115.639 132.517 109.633 129.324Z" fill="#2F5597" transform="matrix(1 0 0 -1.00053 0.0950355 178)"/><path d="M38.3943 121.873C31.7038 118.3 26.0017 114.955 25.6976 114.499 25.0133 113.51 24.8613 38.7745 25.5455 38.7745 25.8496 38.7745 32.0079 41.9677 39.2306 45.8451L52.4596 52.8397 52.4596 90.7018C52.4596 120.429 52.2315 128.488 51.5472 128.488 51.015 128.488 45.0848 125.523 38.3943 121.873Z" fill="#2F5597" transform="matrix(1 0 0 -1.00053 0.0950355 178)"/><path d="M74.8119 91.006C68.5016 87.5847 62.7234 84.3155 62.0392 83.7072 60.9748 82.7949 60.8227 79.6777 60.8227 55.4247 60.8227 29.9552 60.8987 28.1305 62.1912 28.1305 62.8755 28.2065 68.9577 31.1716 75.6482 34.821L87.8128 41.5115 88.0409 69.4139C88.1929 91.4621 88.0409 97.3163 87.2806 97.3163 86.7484 97.2403 81.1223 94.4272 74.8119 91.006Z" fill="#2F5597" transform="matrix(1 0 0 -1.00053 0.0950355 178)"/><path d="M82.1867 35.1251C80.286 33.9847 74.8119 31.0196 70.0221 28.5106 61.8111 24.177 61.2028 23.7209 60.9748 21.44 60.7467 19.5393 60.9748 19.0071 62.1152 19.0071 62.8755 19.0071 68.9577 22.0482 75.6482 25.6976 87.1285 32.0079 87.8128 32.5401 88.0409 34.821 88.345 37.9382 86.8244 38.0142 82.1867 35.1251Z" fill="#2F5597" transform="matrix(1 0 0 -1.00053 0.0950355 178)"/></g></svg>