<?xml version="1.0" encoding="UTF-8"?>
<svg version="1.1" xmlns="http://www.w3.org/2000/svg" width="931" height="472">
<path d="M0 0 C307.23 0 614.46 0 931 0 C931 155.76 931 311.52 931 472 C623.77 472 316.54 472 0 472 C0 316.24 0 160.48 0 0 Z " fill="#DADADA" transform="translate(0,0)"/>
<path d="M0 0 C0.23371171 16.58526514 0.40999421 33.16999544 0.51812172 49.75650978 C0.5696646 57.45818787 0.63991715 65.15884232 0.75439453 72.85986328 C0.85413912 79.57299939 0.91859771 86.28539425 0.94088495 92.99925077 C0.95391243 96.55394798 0.98446558 100.1065249 1.05730057 103.66054153 C1.1379956 107.63037765 1.139895 111.59814927 1.13525391 115.56884766 C1.17120667 116.74417053 1.20715942 117.91949341 1.24420166 119.13043213 C1.20300676 122.38265618 1.07599072 124.92846021 0 128 C-3.01697477 130.81274676 -6.24357404 132.37039388 -10 134 C-11.31476069 134.74019835 -12.62194999 135.49437748 -13.9140625 136.2734375 C-20.75430857 140.16622362 -27.64902053 143.91418046 -34.6875 147.4375 C-35.34637207 147.76733887 -36.00524414 148.09717773 -36.68408203 148.43701172 C-40.07379441 150.11216537 -43.48244943 151.6178502 -47 153 C-47.09341617 136.24960917 -47.16396575 119.49930276 -47.20724869 102.74871445 C-47.22787935 94.97122239 -47.25600938 87.19389212 -47.30175781 79.41650391 C-47.34161039 72.63820325 -47.36742915 65.86001975 -47.37635398 59.0816052 C-47.38157149 55.49198736 -47.39384439 51.90270474 -47.42292023 48.31319427 C-47.45510624 44.30727734 -47.45596045 40.30194421 -47.45410156 36.29589844 C-47.46848267 35.10403427 -47.48286377 33.9121701 -47.49768066 32.68418884 C-47.49218201 31.59326431 -47.48668335 30.50233978 -47.48101807 29.37835693 C-47.48470524 28.43075375 -47.48839241 27.48315056 -47.49219131 26.50683212 C-46.85104687 23.24135093 -45.52962602 22.09195367 -43 20 C-40.48901367 18.47949219 -40.48901367 18.47949219 -37.66796875 17.046875 C-36.62850098 16.51336426 -35.5890332 15.97985352 -34.51806641 15.43017578 C-33.41897949 14.87571777 -32.31989258 14.32125977 -31.1875 13.75 C-28.927912 12.5972817 -26.668796 11.44363769 -24.41015625 10.2890625 C-23.3133252 9.72993164 -22.21649414 9.17080078 -21.08642578 8.59472656 C-18.40890956 7.21127964 -15.75875394 5.79348815 -13.12109375 4.3359375 C-12.08722534 3.76601074 -12.08722534 3.76601074 -11.0324707 3.18457031 C-9.24993326 2.19439848 -7.47242363 1.19519051 -5.6953125 0.1953125 C-3 -1 -3 -1 0 0 Z " fill="#2C3D84" transform="translate(214,156)"/>
<path d="M0 0 C0 42.57 0 85.14 0 129 C-25.25943396 143.43396226 -25.25943396 143.43396226 -33.125 147.75 C-34.05441406 148.26820313 -34.98382813 148.78640625 -35.94140625 149.3203125 C-36.82957031 149.80757812 -37.71773438 150.29484375 -38.6328125 150.796875 C-39.79127686 151.43641113 -39.79127686 151.43641113 -40.97314453 152.08886719 C-43 153 -43 153 -46 153 C-46.11677007 136.24963038 -46.20495689 119.49939265 -46.25906086 102.74871445 C-46.28484936 94.97117258 -46.32001179 87.19388352 -46.37719727 79.41650391 C-46.42701299 72.63820264 -46.45928633 65.86008443 -46.47044247 59.0816052 C-46.47696451 55.49190439 -46.49230526 51.90272731 -46.52865028 48.31319427 C-46.56888365 44.30719207 -46.56995065 40.30210196 -46.56762695 36.29589844 C-46.58560333 35.10403427 -46.60357971 33.9121701 -46.62210083 32.68418884 C-46.57140152 24.6372613 -46.57140152 24.6372613 -43.58740234 21.30932617 C-42.73355957 20.87724854 -41.8797168 20.4451709 -41 20 C-40.0267981 19.38366699 -40.0267981 19.38366699 -39.03393555 18.75488281 C-38.09481323 18.2342627 -38.09481323 18.2342627 -37.13671875 17.703125 C-36.42209473 17.30544922 -35.7074707 16.90777344 -34.97119141 16.49804688 C-34.21757324 16.08619141 -33.46395508 15.67433594 -32.6875 15.25 C-31.90294434 14.81751953 -31.11838867 14.38503906 -30.31005859 13.93945312 C-22.64487822 9.74584972 -14.84726178 5.83894821 -7 2 C-6.25492187 1.5978125 -5.50984375 1.195625 -4.7421875 0.78125 C-3 0 -3 0 0 0 Z " fill="#2C3C83" transform="translate(335,143)"/>
<path d="M0 0 C0 31.35 0 62.7 0 95 C-8.89923935 100.08527963 -17.78235499 105.14756972 -26.79931641 110.01220703 C-28.036288 110.68147516 -29.27126247 111.35444533 -30.50439453 112.03076172 C-32.32419215 113.02859292 -34.14955063 114.01545431 -35.9765625 115 C-37.57105225 115.86625 -37.57105225 115.86625 -39.19775391 116.75 C-42 118 -42 118 -46 118 C-46.11583311 105.96076307 -46.20468486 93.92165864 -46.25906086 81.88197803 C-46.28515829 76.29147985 -46.32055972 70.7013628 -46.37719727 65.11108398 C-46.43151076 59.71645549 -46.46141943 54.32219366 -46.47438622 48.92731285 C-46.48362721 46.86877354 -46.50167281 44.81025438 -46.52865028 42.75187111 C-46.56493144 39.8690512 -46.56994569 36.98774768 -46.56762695 34.10473633 C-46.58560333 33.25309402 -46.60357971 32.40145172 -46.62210083 31.52400208 C-46.58439674 27.19374973 -46.42397463 25.53070206 -43.63053894 22.03407288 C-40.99721118 19.99784354 -38.47000119 18.4138519 -35.5 16.9140625 C-34.45344238 16.37869873 -33.40688477 15.84333496 -32.32861328 15.29174805 C-31.2301709 14.74172119 -30.13172852 14.19169434 -29 13.625 C-26.7469629 12.47871512 -24.49435443 11.33158736 -22.2421875 10.18359375 C-21.16420898 9.63687012 -20.08623047 9.09014648 -18.97558594 8.52685547 C-14.34255765 6.14952048 -9.79599823 3.62772107 -5.2578125 1.07421875 C-3 0 -3 0 0 0 Z " fill="#2C3C83" transform="translate(274,209)"/>
<path d="M0 0 C9.57 0 19.14 0 29 0 C34.89031279 5.89031279 34.18248328 10.13378847 34.1875 18 C34.19974609 19.010625 34.21199219 20.02125 34.22460938 21.0625 C34.22654297 22.031875 34.22847656 23.00125 34.23046875 24 C34.23457764 24.886875 34.23868652 25.77375 34.24291992 26.6875 C34 29 34 29 32 32 C31.34 32 30.68 32 30 32 C30 32.66 30 33.32 30 34 C31.485 34.495 31.485 34.495 33 35 C35.04184918 39.08369837 34.31718347 44.26133506 34.375 48.75 C34.43107422 50.37808594 34.43107422 50.37808594 34.48828125 52.0390625 C34.49988281 53.09351563 34.51148438 54.14796875 34.5234375 55.234375 C34.5531665 56.67635254 34.5531665 56.67635254 34.58349609 58.14746094 C34 61 34 61 29 67 C19.43 67 9.86 67 0 67 C0 44.89 0 22.78 0 0 Z " fill="#363636" transform="translate(482,184)"/>
<path d="M0 0 C0.90878906 -0.00644531 1.81757813 -0.01289063 2.75390625 -0.01953125 C3.69105469 -0.00019531 4.62820313 0.01914063 5.59375 0.0390625 C6.99947266 0.01005859 6.99947266 0.01005859 8.43359375 -0.01953125 C12.72842045 0.01092851 15.44923407 0.30046883 19.23046875 2.43359375 C22.13605296 7.47115799 21.62271045 12.27865755 21.40625 17.9765625 C21.38369141 19.09869141 21.36113281 20.22082031 21.33789062 21.37695312 C21.2791046 24.13989609 21.18942823 26.90215097 21.09375 29.6640625 C13.83375 29.6640625 6.57375 29.6640625 -0.90625 29.6640625 C-0.761875 31.9534375 -0.6175 34.2428125 -0.46875 36.6015625 C-0.38753906 37.88933594 -0.30632812 39.17710937 -0.22265625 40.50390625 C-0.25705812 43.52430207 -0.25705812 43.52430207 1.09375 44.6640625 C2.61303038 44.73586214 4.13542482 44.74798257 5.65625 44.7265625 C6.48253906 44.71753906 7.30882812 44.70851562 8.16015625 44.69921875 C8.79824219 44.68761719 9.43632812 44.67601562 10.09375 44.6640625 C10.42375 42.3540625 10.75375 40.0440625 11.09375 37.6640625 C14.39375 37.6640625 17.69375 37.6640625 21.09375 37.6640625 C21.30183502 42.97023054 21.20078275 47.01117884 17.81396484 51.27539062 C14.44253938 53.99702957 9.87308078 53.17529042 5.71875 53.1640625 C4.77257812 53.19242188 3.82640625 53.22078125 2.8515625 53.25 C1.47484375 53.25386719 1.47484375 53.25386719 0.0703125 53.2578125 C-0.76419434 53.26490234 -1.59870117 53.27199219 -2.45849609 53.27929688 C-6.2357491 52.32989755 -7.62072298 50.79615514 -9.90625 47.6640625 C-10.62424992 44.49144511 -10.60772473 41.40660432 -10.5703125 38.1640625 C-10.57509613 37.25076172 -10.57987976 36.33746094 -10.58480835 35.39648438 C-10.58820317 33.47003451 -10.57902994 31.54352671 -10.55810547 29.6171875 C-10.53133281 26.67316902 -10.55786622 23.7329628 -10.58984375 20.7890625 C-10.58653958 18.91405411 -10.58013318 17.03904808 -10.5703125 15.1640625 C-10.58043365 14.28685547 -10.59055481 13.40964844 -10.60098267 12.50585938 C-10.51798144 8.16455032 -10.30365588 6.20681631 -7.67138672 2.61181641 C-4.77031725 0.56831188 -3.48835775 0.02393971 0 0 Z " fill="#353535" transform="translate(448.90625,198.3359375)"/>
<path d="M0 0 C0.96164062 -0.00515625 1.92328125 -0.0103125 2.9140625 -0.015625 C3.91179688 -0.00015625 4.90953125 0.0153125 5.9375 0.03125 C6.93523438 0.01578125 7.93296875 0.0003125 8.9609375 -0.015625 C16.18869115 0.02312971 16.18869115 0.02312971 19.5625 2.3125 C21.83735135 5.98328286 22.06115417 9.25196652 22.03515625 13.515625 C22.03265869 14.35834961 22.03016113 15.20107422 22.02758789 16.06933594 C22.01848389 17.12926758 22.00937988 18.18919922 22 19.28125 C21.979375 22.66375 21.95875 26.04625 21.9375 29.53125 C14.6775 29.53125 7.4175 29.53125 -0.0625 29.53125 C0.2675 34.48125 0.5975 39.43125 0.9375 44.53125 C3.9075 44.53125 6.8775 44.53125 9.9375 44.53125 C10.5975 42.22125 11.2575 39.91125 11.9375 37.53125 C14.9075 37.53125 17.8775 37.53125 20.9375 37.53125 C21.0738128 39.09127428 21.17009126 40.65482176 21.25 42.21875 C21.30800781 43.08886719 21.36601563 43.95898438 21.42578125 44.85546875 C20.68595355 48.90972453 19.29984995 50.1725866 15.9375 52.53125 C12.3970055 53.22889725 8.97216795 53.18484871 5.375 53.09375 C3.95670898 53.11018555 3.95670898 53.11018555 2.50976562 53.12695312 C-4.2242596 53.0555677 -4.2242596 53.0555677 -7.32983398 51.11303711 C-10.00055579 47.13348475 -9.63462548 43.34737232 -9.59375 38.65625 C-9.5975769 37.69477051 -9.60140381 36.73329102 -9.60534668 35.74267578 C-9.60806602 33.7119034 -9.60070329 31.68109601 -9.58398438 29.65039062 C-9.56257525 26.5421743 -9.58378546 23.43626944 -9.609375 20.328125 C-9.60673173 18.35416157 -9.60160676 16.38019957 -9.59375 14.40625 C-9.60184692 13.47699707 -9.60994385 12.54774414 -9.61828613 11.59033203 C-9.52584368 5.22863759 -9.52584368 5.22863759 -7.34570312 1.94726562 C-4.67188479 0.28899506 -3.13253208 0.01614707 0 0 Z " fill="#353535" transform="translate(574.0625,198.46875)"/>
<path d="M0 0 C2.97 0 5.94 0 9 0 C9.33 7.26 9.66 14.52 10 22 C10.66 21.34 11.32 20.68 12 20 C14.86328125 19.62890625 14.86328125 19.62890625 18.3125 19.5625 C19.44300781 19.52253906 20.57351563 19.48257813 21.73828125 19.44140625 C26.16737645 20.19992195 27.33032516 21.38347301 30 25 C30.69017148 28.6687629 30.58206165 32.266581 30.48828125 35.98828125 C30.48120651 37.04661667 30.47413177 38.10495209 30.46684265 39.19535828 C30.43890219 42.56846437 30.37616121 45.93989746 30.3125 49.3125 C30.28741682 51.60218953 30.26460369 53.89190514 30.24414062 56.18164062 C30.18907608 61.78840291 30.10280295 67.39391802 30 73 C26.7 73 23.4 73 20 73 C20 58.15 20 43.3 20 28 C15.05 28.495 15.05 28.495 10 29 C9.67 43.52 9.34 58.04 9 73 C6.03 73 3.06 73 0 73 C0 48.91 0 24.82 0 0 Z " fill="#363636" transform="translate(397,179)"/>
<path d="M0 0 C2.97 0 5.94 0 9 0 C9.33 7.26 9.66 14.52 10 22 C10.66 21.34 11.32 20.68 12 20 C14.86328125 19.62890625 14.86328125 19.62890625 18.3125 19.5625 C19.44300781 19.52253906 20.57351563 19.48257813 21.73828125 19.44140625 C26.16737645 20.19992195 27.33032516 21.38347301 30 25 C30.69017148 28.6687629 30.58206165 32.266581 30.48828125 35.98828125 C30.48120651 37.04661667 30.47413177 38.10495209 30.46684265 39.19535828 C30.43890219 42.56846437 30.37616121 45.93989746 30.3125 49.3125 C30.28741682 51.60218953 30.26460369 53.89190514 30.24414062 56.18164062 C30.18907608 61.78840291 30.10280295 67.39391802 30 73 C26.7 73 23.4 73 20 73 C20 58.15 20 43.3 20 28 C15.05 28.495 15.05 28.495 10 29 C9.67 43.19 9.34 57.38 9 72 C6.03 72 3.06 72 0 72 C0 48.24 0 24.48 0 0 Z " fill="#353535" transform="translate(648,179)"/>
<path d="M0 0 C0.91330078 -0.00193359 1.82660156 -0.00386719 2.76757812 -0.00585938 C3.70923828 0.01798828 4.65089844 0.04183594 5.62109375 0.06640625 C7.03938477 0.0499707 7.03938477 0.0499707 8.48632812 0.03320312 C12.52249796 0.07598938 15.22792126 0.11081274 18.6953125 2.2734375 C20.46349579 5.32849344 20.46113458 7.37046714 20.30859375 10.87890625 C20.2725 11.9565625 20.23640625 13.03421875 20.19921875 14.14453125 C20.12960937 15.37429687 20.12960937 15.37429687 20.05859375 16.62890625 C17.08859375 16.62890625 14.11859375 16.62890625 11.05859375 16.62890625 C11.05859375 13.98890625 11.05859375 11.34890625 11.05859375 8.62890625 C7.42859375 8.62890625 3.79859375 8.62890625 0.05859375 8.62890625 C0.05859375 20.50890625 0.05859375 32.38890625 0.05859375 44.62890625 C3.68859375 44.62890625 7.31859375 44.62890625 11.05859375 44.62890625 C11.05859375 41.98890625 11.05859375 39.34890625 11.05859375 36.62890625 C14.35859375 36.62890625 17.65859375 36.62890625 21.05859375 36.62890625 C21.66219257 45.56216872 21.66219257 45.56216872 19.1953125 49.921875 C16.72672998 52.62966295 14.76475868 53.10371596 11.15234375 53.390625 C9.28760802 53.39723754 7.42252628 53.37152943 5.55859375 53.31640625 C4.62144531 53.33123047 3.68429687 53.34605469 2.71875 53.36132812 C-4.01797068 53.28010525 -4.01797068 53.28010525 -7.70654297 50.67895508 C-10.7976589 46.46032811 -10.66439901 43.23642985 -10.60546875 38.12890625 C-10.61025238 37.21560547 -10.61503601 36.30230469 -10.6199646 35.36132812 C-10.62335942 33.43487826 -10.61418619 31.50837046 -10.59326172 29.58203125 C-10.56648906 26.63801277 -10.59302247 23.69780655 -10.625 20.75390625 C-10.62169583 18.87889786 -10.61528943 17.00389183 -10.60546875 15.12890625 C-10.6155899 14.25169922 -10.62571106 13.37449219 -10.63613892 12.47070312 C-10.55315541 8.13032106 -10.33738825 6.17063734 -7.70874023 2.57446289 C-4.78751837 0.52071635 -3.51075294 -0.00307392 0 0 Z " fill="#373737" transform="translate(615.94140625,198.37109375)"/>
<path d="M0 0 C10.89 0 21.78 0 33 0 C33 2.31 33 4.62 33 7 C29.04 7 25.08 7 21 7 C21 27.13 21 47.26 21 68 C17.7 68 14.4 68 11 68 C11 48.2 11 28.4 11 8 C7.37 8 3.74 8 0 8 C0 5.36 0 2.72 0 0 Z " fill="#393939" transform="translate(356,184)"/>
<path d="M0 0 C10.56 0 21.12 0 32 0 C32 2.31 32 4.62 32 7 C28.37 7 24.74 7 21 7 C21 27.13 21 47.26 21 68 C17.7 68 14.4 68 11 68 C11 48.2 11 28.4 11 8 C7.37 8 3.74 8 0 8 C0 5.36 0 2.72 0 0 Z " fill="#3A3A3A" transform="translate(524,184)"/>
<path d="M0 0 C0.3125 2.75 0.3125 2.75 0 6 C-2.125 8.125 -2.125 8.125 -5 10 C-5.99 10.70125 -6.98 11.4025 -8 12.125 C-11.74271759 14.46419849 -14.55739976 16 -19 16 C-19 16.66 -19 17.32 -19 18 C-20.59328125 18.77923828 -20.59328125 18.77923828 -22.21875 19.57421875 C-31.18992524 23.91714521 -31.18992524 23.91714521 -39.75 29 C-43 31 -43 31 -47 31 C-47.33 28.69 -47.66 26.38 -48 24 C-38.5960354 17.59440092 -29.0570348 11.91265937 -18.84057617 6.91088867 C-14.35956537 4.71232429 -10.03130119 2.36559455 -5.796875 -0.28515625 C-3.50690274 -1.19616695 -2.2831025 -0.80312676 0 0 Z " fill="#E6AB49" transform="translate(275,312)"/>
<path d="M0 0 C0.3125 2.75 0.3125 2.75 0 6 C-3.63270199 9.39325835 -7.82719708 11.80703834 -12.125 14.25 C-12.74503906 14.61351562 -13.36507812 14.97703125 -14.00390625 15.3515625 C-16.87716265 16.99518874 -18.63456707 18 -22 18 C-22 18.66 -22 19.32 -22 20 C-25.08809695 21.76462683 -26.23312136 22 -30 22 C-30 22.66 -30 23.32 -30 24 C-32.26727333 25.17407021 -34.53834624 26.33939739 -36.8125 27.5 C-37.45509766 27.83386719 -38.09769531 28.16773438 -38.75976562 28.51171875 C-41.69547699 30.00239084 -43.66126517 31 -47 31 C-47.86629002 25.97551789 -47.86629002 25.97551789 -47 23 C-44.00662233 20.34942222 -40.56442388 18.7663196 -37 17 C-35.5864542 16.22227494 -34.17661404 15.43779548 -32.76953125 14.6484375 C-27.09891443 11.4793025 -21.33946307 8.48628867 -15.578125 5.48632812 C-14.77117187 5.06416016 -13.96421875 4.64199219 -13.1328125 4.20703125 C-12.40980957 3.8303833 -11.68680664 3.45373535 -10.94189453 3.06567383 C-6.72277589 0.75030384 -4.91869308 -0.21860858 0 0 Z " fill="#E6AB4A" transform="translate(336,128)"/>
<path d="M0 0 C1.2065625 0.0309375 1.2065625 0.0309375 2.4375 0.0625 C2.6875 2.8125 2.6875 2.8125 2.4375 6.0625 C-0.11122807 9.06796996 -2.78398632 10.94859393 -6.23828125 12.796875 C-7.14215576 13.28494629 -8.04603027 13.77301758 -8.97729492 14.27587891 C-9.9335376 14.78296387 -10.88978027 15.29004883 -11.875 15.8125 C-12.85380127 16.3389209 -13.83260254 16.8653418 -14.84106445 17.40771484 C-17.74421039 18.9669395 -20.65237922 20.51633929 -23.5625 22.0625 C-25.81479236 23.2618659 -28.06701322 24.46136555 -30.3190918 25.66113281 C-32.1312219 26.62436394 -33.94636829 27.58191443 -35.76171875 28.5390625 C-38.64824963 30.05487696 -38.64824963 30.05487696 -41.5625 32.0625 C-42.5525 32.0625 -43.5425 32.0625 -44.5625 32.0625 C-44.93464571 24.49553719 -44.93464571 24.49553719 -43.26586914 22.55371094 C-41.56462847 21.06436336 -40.04605572 20.13863508 -38.015625 19.16015625 C-37.335 18.82693359 -36.654375 18.49371094 -35.953125 18.15039062 C-34.89351562 17.64282227 -34.89351562 17.64282227 -33.8125 17.125 C-29.22902715 14.90594925 -24.72829629 12.63532697 -20.32617188 10.07348633 C-16.4903607 7.87469147 -12.55356669 5.85610949 -8.640625 3.79882812 C-1.53165975 0.03735755 -1.53165975 0.03735755 0 0 Z " fill="#E9A93F" transform="translate(211.5625,139.9375)"/>
<path d="M0 0 C3.88628927 0.06198229 4.59859971 0.31699773 7.8125 2.875 C10.5027877 6.80337857 10.54533548 10.85162945 9.75 15.4375 C8.36019502 18.40662882 7.05342972 20.13407028 4.75 22.4375 C1.69456231 22.99786019 -1.19301486 22.98144753 -4.25 22.4375 C-7.90524936 19.05639434 -9.09727172 16.05641975 -9.5625 11.125 C-9.0327172 4.87356299 -6.30401222 0.34442451 0 0 Z " fill="#D4D4D4" transform="translate(475.25,268.5625)"/>
<path d="M0 0 C10.05859375 -0.09765625 10.05859375 -0.09765625 13 0 C14.58413359 1.58413359 14.12979629 3.20977785 14.1328125 5.40234375 C14.13410156 6.29244141 14.13539063 7.18253906 14.13671875 8.09960938 C14.13285156 9.03611328 14.12898438 9.97261719 14.125 10.9375 C14.12886719 11.87013672 14.13273437 12.80277344 14.13671875 13.76367188 C14.13542969 14.65505859 14.13414062 15.54644531 14.1328125 16.46484375 C14.13168457 17.285896 14.13055664 18.10694824 14.12939453 18.95288086 C14 21 14 21 13 23 C8.71 23 4.42 23 0 23 C0 15.41 0 7.82 0 0 Z " fill="#D6D6D6" transform="translate(492,221)"/>
<path d="M0 0 C10.05859375 -0.09765625 10.05859375 -0.09765625 13 0 C14.58937556 1.58937556 14.12981143 3.23899846 14.1328125 5.4375 C14.13474609 6.77941406 14.13474609 6.77941406 14.13671875 8.1484375 C14.13285156 9.08945313 14.12898438 10.03046875 14.125 11 C14.12886719 11.94101563 14.13273437 12.88203125 14.13671875 13.8515625 C14.13542969 14.74617187 14.13414062 15.64078125 14.1328125 16.5625 C14.13168457 17.38878906 14.13055664 18.21507812 14.12939453 19.06640625 C14 21 14 21 13 22 C8.66469082 22.14393457 4.33842269 22.04212061 0 22 C0 14.74 0 7.48 0 0 Z " fill="#D4D4D4" transform="translate(492,191)"/>
<path d="M0 0 C23.1 0 46.2 0 70 0 C70 1.32 70 2.64 70 4 C46.9 4 23.8 4 0 4 C0 2.68 0 1.36 0 0 Z " fill="#656565" transform="translate(370,278)"/>
<path d="M0 0 C23.1 0 46.2 0 70 0 C70 1.32 70 2.64 70 4 C46.9 4 23.8 4 0 4 C0 2.68 0 1.36 0 0 Z " fill="#656565" transform="translate(594,278)"/>
<path d="M0 0 C0.66 0 1.32 0 2 0 C2 42.57 2 85.14 2 129 C1.01 129.33 0.02 129.66 -1 130 C-1.02332875 113.19776179 -1.04097906 96.39552861 -1.05181217 79.59327793 C-1.05697518 71.79224164 -1.06401797 63.99121539 -1.07543945 56.19018555 C-1.08538615 49.39323687 -1.09185339 42.59629546 -1.09408849 35.79933971 C-1.09539563 32.19821869 -1.09848164 28.59711848 -1.10573006 24.9960041 C-1.11374364 20.98243398 -1.11399115 16.96890036 -1.11352539 12.95532227 C-1.11712067 11.75267227 -1.12071594 10.55002228 -1.12442017 9.31092834 C-1.1230455 8.22412781 -1.12167084 7.13732727 -1.12025452 6.01759338 C-1.12117631 5.06722482 -1.1220981 4.11685625 -1.12304783 3.13768864 C-1 1 -1 1 0 0 Z " fill="#465081" transform="translate(168,179)"/>
<path d="M0 0 C1.32 0 2.64 0 4 0 C5.65 4.62 7.3 9.24 9 14 C9.61875 12.4325 10.2375 10.865 10.875 9.25 C12.12374836 6.08650414 13.43370292 3.01970788 15 0 C16.32 0 17.64 0 19 0 C19 7.26 19 14.52 19 22 C18.01 22 17.02 22 16 22 C15.67 17.05 15.34 12.1 15 7 C14.360625 8.77375 13.72125 10.5475 13.0625 12.375 C11.125 17.75 11.125 17.75 10 20 C9.34 20 8.68 20 8 20 C6.68 16.37 5.36 12.74 4 9 C3.67 13.29 3.34 17.58 3 22 C2.01 22 1.02 22 0 22 C0 14.74 0 7.48 0 0 Z " fill="#4B4B4B" transform="translate(490,269)"/>
<path d="M0 0 C10 0 10 0 13 1 C14.54163175 4.0832635 14.29747535 6.60878099 14 10 C12.5 11.9375 12.5 11.9375 10 13 C7.27940731 13.22844671 4.7408346 13.13704173 2 13 C2 15.97 2 18.94 2 22 C1.34 22 0.68 22 0 22 C0 14.74 0 7.48 0 0 Z " fill="#323232" transform="translate(515,269)"/>
<path d="M0 0 C4 1 4 1 6.140625 4.16015625 C6.85703244 5.45366968 7.55974235 6.75484523 8.25 8.0625 C8.61351562 8.72572266 8.97703125 9.38894531 9.3515625 10.07226562 C10.24616748 11.70845105 11.12466067 13.35342724 12 15 C12.33 10.05 12.66 5.1 13 0 C13.99 0 14.98 0 16 0 C16 7.26 16 14.52 16 22 C12 21 12 21 9.859375 18.05859375 C9.14360567 16.85901738 8.4408473 15.65160016 7.75 14.4375 C7.38648438 13.82197266 7.02296875 13.20644531 6.6484375 12.57226562 C5.7543912 11.05473967 4.87568372 9.52819561 4 8 C3.67 12.62 3.34 17.24 3 22 C2.01 22 1.02 22 0 22 C0 14.74 0 7.48 0 0 Z " fill="#454545" transform="translate(551,269)"/>
<path d="M0 0 C0.80566406 0.00257813 1.61132812 0.00515625 2.44140625 0.0078125 C3.64603516 0.00394531 3.64603516 0.00394531 4.875 0 C7.00390625 0.1328125 7.00390625 0.1328125 9.00390625 1.1328125 C9.00390625 5.7528125 9.00390625 10.3728125 9.00390625 15.1328125 C5.04390625 15.1328125 1.08390625 15.1328125 -2.99609375 15.1328125 C-3.02294787 12.82037458 -3.04242216 10.5078498 -3.05859375 8.1953125 C-3.07019531 6.90753906 -3.08179688 5.61976563 -3.09375 4.29296875 C-2.96718809 0.19742543 -2.96718809 0.19742543 0 0 Z " fill="#CECECE" transform="translate(450.99609375,205.8671875)"/>
<path d="M0 0 C1.20462891 -0.02126953 1.20462891 -0.02126953 2.43359375 -0.04296875 C4.5625 0.1875 4.5625 0.1875 6.5625 2.1875 C6.7578125 5.2265625 6.7578125 5.2265625 6.6875 8.8125 C6.66945313 10.00101563 6.65140625 11.18953125 6.6328125 12.4140625 C6.60960937 13.32929688 6.58640625 14.24453125 6.5625 15.1875 C2.6025 15.1875 -1.3575 15.1875 -5.4375 15.1875 C-5.46435412 12.87506208 -5.48382841 10.5625373 -5.5 8.25 C-5.51160156 6.96222656 -5.52320313 5.67445313 -5.53515625 4.34765625 C-5.38877657 -0.38919034 -4.32069139 0.03456553 0 0 Z " fill="#D1D1D1" transform="translate(579.4375,205.8125)"/>
<path d="M0 0 C1.32 0 2.64 0 4 0 C6.31 7.26 8.62 14.52 11 22 C9.68 21.67 8.36 21.34 7 21 C6.67 19.02 6.34 17.04 6 15 C3.03 15 0.06 15 -3 15 C-3.33 17.31 -3.66 19.62 -4 22 C-4.99 22 -5.98 22 -7 22 C-3.25 3.25 -3.25 3.25 0 0 Z " fill="#474747" transform="translate(537,269)"/>
<path d="M0 0 C3.88628927 0.06198229 4.59859971 0.31699773 7.8125 2.875 C10.5027877 6.80337857 10.54533548 10.85162945 9.75 15.4375 C8.36019502 18.40662882 7.05342972 20.13407028 4.75 22.4375 C1.69456231 22.99786019 -1.19301486 22.98144753 -4.25 22.4375 C-7.90524936 19.05639434 -9.09727172 16.05641975 -9.5625 11.125 C-9.0327172 4.87356299 -6.30401222 0.34442451 0 0 Z M-4.625 4.5 C-6.6540053 8.16781728 -6.76760491 10.29666073 -6.25 14.4375 C-5.09360194 16.75029611 -4.07590172 18.61159828 -2.25 20.4375 C0.12221956 20.93885199 0.12221956 20.93885199 2.75 20.4375 C5.33267414 18.27363788 6.56307281 16.60475646 7.1015625 13.2421875 C7.22899664 9.7319561 7.04486719 7.10914193 5.625 3.875 C3.74114948 2.20826751 3.74114948 2.20826751 0.8125 1.875 C-2.37380584 2.19193645 -2.37380584 2.19193645 -4.625 4.5 Z " fill="#3E3E3E" transform="translate(475.25,268.5625)"/>
<path d="M0 0 C0.33 0 0.66 0 1 0 C1.44041451 5.37305699 1.44041451 5.37305699 1 8 C-1.5 10 -1.5 10 -4 11 C-3.505 12.98 -3.505 12.98 -3 15 C-5.19912496 16.20801248 -7.40661819 17.39081947 -9.625 18.5625 C-10.55119141 19.07586914 -10.55119141 19.07586914 -11.49609375 19.59960938 C-15.83681317 21.86135265 -18.29329268 22.097103 -23 21 C-26.72843964 22.73344875 -26.72843964 22.73344875 -29 26 C-30.98 26 -32.96 26 -35 26 C-35 26.66 -35 27.32 -35 28 C-36.32 27.67 -37.64 27.34 -39 27 C-38.37657715 26.67837891 -37.7531543 26.35675781 -37.11083984 26.02539062 C-31.03102319 22.88409601 -24.96600143 19.71592275 -18.91162109 16.52587891 C-16.42464947 15.22254395 -13.92778225 13.94205675 -11.42578125 12.66796875 C-10.17883817 12.00941817 -8.93266396 11.34940832 -7.6875 10.6875 C-6.61886719 10.13449219 -5.55023438 9.58148438 -4.44921875 9.01171875 C-1.23177229 6.36899957 -0.79025258 4.00873582 0 0 Z " fill="#D3D0CD" transform="translate(214,141)"/>
<path d="M0 0 C0.33 0 0.66 0 1 0 C0.99815641 0.63721922 0.99631283 1.27443844 0.99441338 1.93096733 C0.95028651 17.420354 0.91716889 32.90971887 0.89637566 48.39915276 C0.8860535 55.88965992 0.87197529 63.38012519 0.84912109 70.87060547 C0.82921589 77.39764945 0.8162904 83.92466309 0.81182301 90.45173657 C0.80921074 93.90927772 0.80305145 97.36673206 0.78853989 100.82424545 C0.77248927 104.67955936 0.77201846 108.53478757 0.77294922 112.39013672 C0.76575867 113.54243774 0.75856812 114.69473877 0.75115967 115.88195801 C0.753909 116.92806244 0.75665833 117.97416687 0.75949097 119.05197144 C0.75764738 119.96454649 0.75580379 120.87712154 0.75390434 121.81735039 C0.79395901 124.20957877 0.79395901 124.20957877 3 126 C1.02 126.495 1.02 126.495 -1 127 C-1.02332895 110.58891314 -1.04097916 94.17783163 -1.05181217 77.76673222 C-1.05697514 70.14729827 -1.06401784 62.52787461 -1.07543945 54.90844727 C-1.08538628 48.26971173 -1.09185342 41.63098363 -1.09408849 34.99224085 C-1.09539561 31.47495664 -1.09848147 27.95769374 -1.10573006 24.44041634 C-1.11374389 20.52025062 -1.11399114 16.60010601 -1.11352539 12.67993164 C-1.11712067 11.50533386 -1.12071594 10.33073608 -1.12442017 9.12054443 C-1.12235817 7.52820732 -1.12235817 7.52820732 -1.12025452 5.90370178 C-1.12117631 4.97545625 -1.1220981 4.04721071 -1.12304783 3.09083652 C-1 1 -1 1 0 0 Z " fill="#313F70" transform="translate(290,169)"/>
<path d="M0 0 C0 0.99 0 1.98 0 3 C0.99 3.33 1.98 3.66 3 4 C2.01 4 1.02 4 0 4 C0 4.66 0 5.32 0 6 C-2.70879335 7.35439668 -5.00933268 7.06501451 -8 7 C-8 7.66 -8 8.32 -8 9 C-9.98 9.33 -11.96 9.66 -14 10 C-14.33 10.99 -14.66 11.98 -15 13 C-16.32 13 -17.64 13 -19 13 C-19 13.66 -19 14.32 -19 15 C-20.65 15 -22.3 15 -24 15 C-24 15.66 -24 16.32 -24 17 C-26.97 17.33 -29.94 17.66 -33 18 C-28.18864039 13.69783396 -22.58948961 10.90166805 -16.9375 7.875 C-15.44766602 7.06869141 -15.44766602 7.06869141 -13.92773438 6.24609375 C-11.28985737 4.82146253 -8.65070045 3.40062504 -6 2 C-5.27756104 1.61473145 -4.55512207 1.22946289 -3.81079102 0.83251953 C-2 0 -2 0 0 0 Z " fill="#D1D1DA" transform="translate(271,306)"/>
<path d="M0 0 C0.59167969 0.06960938 1.18335938 0.13921875 1.79296875 0.2109375 C2.12296875 1.5309375 2.45296875 2.8509375 2.79296875 4.2109375 C0.77473958 3.95052083 -1.24348958 3.69010417 -3.26171875 3.4296875 C-5.21201469 3.173689 -5.21201469 3.173689 -7.20703125 3.2109375 C-8.81981782 8.04929721 -8.9955385 13.00311719 -7.26953125 17.8359375 C-3.81128067 20.14143789 -0.12969056 18.96750911 3.79296875 18.2109375 C2.79296875 21.2109375 2.79296875 21.2109375 0.79296875 22.2109375 C-6.42429166 22.79297463 -6.42429166 22.79297463 -9.64453125 20.3984375 C-12.75060123 16.04993952 -12.95291606 11.37070536 -12.20703125 6.2109375 C-9.77131659 0.36522231 -5.81857438 -0.39866252 0 0 Z " fill="#404040" transform="translate(460.20703125,268.7890625)"/>
<path d="M0 0 C1.32 0.33 2.64 0.66 4 1 C-2.47206993 5.10727515 -9.14017901 8.6375457 -16.0078125 12.01953125 C-21.75985617 14.85720613 -27.40182715 17.86881858 -33 21 C-32.19303419 16.09233037 -31.15162326 13.98916875 -27 11 C-23.33482743 10.29377125 -19.72762284 10.0718106 -16 10 C-16 9.34 -16 8.68 -16 8 C-14.35 8 -12.7 8 -11 8 C-11 7.34 -11 6.68 -11 6 C-10.360625 5.87625 -9.72125 5.7525 -9.0625 5.625 C-8.381875 5.41875 -7.70125 5.2125 -7 5 C-6.67 4.34 -6.34 3.68 -6 3 C-2.9375 2.375 -2.9375 2.375 0 2 C0 1.34 0 0.68 0 0 Z " fill="#E1D7C8" transform="translate(263,313)"/>
<path d="M0 0 C0.99 0 1.98 0 3 0 C3 30.36 3 60.72 3 92 C2.67 92 2.34 92 2 92 C1.98969254 90.89166306 1.97938507 89.78332611 1.96876526 88.6414032 C1.87111015 78.20853539 1.76838355 67.77572827 1.66066074 57.3429594 C1.60544011 51.97906753 1.55202141 46.61517019 1.50268555 41.2512207 C1.45502942 36.07704169 1.40268604 30.90292959 1.34705925 25.72883034 C1.32664138 23.75244622 1.30792735 21.77604376 1.29092598 19.7996273 C1.2668695 17.03651661 1.2368165 14.27353255 1.20532227 11.51049805 C1.1995668 10.68906815 1.19381134 9.86763824 1.18788147 9.02131653 C1.14554734 5.76485528 1.03689011 3.11067033 0 0 Z " fill="#2F3D76" transform="translate(271,209)"/>
<path d="M0 0 C1.890625 0.21484375 1.890625 0.21484375 4 1 C5.046875 3.06640625 5.046875 3.06640625 5.75 5.5625 C5.99234375 6.38878906 6.2346875 7.21507812 6.484375 8.06640625 C6.65453125 8.70449219 6.8246875 9.34257812 7 10 C7.66 10 8.32 10 9 10 C9.103125 9.278125 9.20625 8.55625 9.3125 7.8125 C10.06793947 4.72206579 11.15531315 2.58256159 13 0 C13.66 0 14.32 0 15 0 C14.58125523 3.34995815 13.61006162 5.83322171 12 8.75 C9.71887166 13.08083787 9.22418842 17.15753007 9 22 C8.01 22 7.02 22 6 22 C5.98582031 21.33355469 5.97164062 20.66710937 5.95703125 19.98046875 C5.56517696 12.40814927 3.50515354 6.68695344 0 0 Z " fill="#434343" transform="translate(570,269)"/>
<path d="M0 0 C0.66 0.33 1.32 0.66 2 1 C0.8141763 4.37503669 -0.27573689 6.64722731 -3 9 C-2.401875 8.649375 -1.80375 8.29875 -1.1875 7.9375 C1 7 1 7 4 8 C2.40089132 9.00806851 0.79551738 10.00620385 -0.8125 11 C-2.15248047 11.8353125 -2.15248047 11.8353125 -3.51953125 12.6875 C-6 14 -6 14 -9 14 C-9.36455696 6.58734177 -9.36455696 6.58734177 -7.875 4.1875 C-5.31255703 2.56461945 -2.79327155 1.18862619 0 0 Z " fill="#E3AE56" transform="translate(176,158)"/>
<path d="M0 0 C6.625 -0.25 6.625 -0.25 10 2 C9.625 4.9375 9.625 4.9375 9 8 C6.04335481 9.4783226 3.25770263 9.06032783 0 9 C0 6.03 0 3.06 0 0 Z " fill="#CCCCCC" transform="translate(517,271)"/>
<path d="M0 0 C0 0.66 0 1.32 0 2 C-0.71542969 2.35191406 -1.43085938 2.70382813 -2.16796875 3.06640625 C-9.00033989 6.45165612 -15.71337313 9.98510598 -22.3828125 13.6796875 C-25 15 -25 15 -27 15 C-27 14.34 -27 13.68 -27 13 C-26.01 13 -25.02 13 -24 13 C-23.67 11.68 -23.34 10.36 -23 9 C-21.68 9 -20.36 9 -19 9 C-19 8.34 -19 7.68 -19 7 C-18.01 7 -17.02 7 -16 7 C-16 6.34 -16 5.68 -16 5 C-12.49223216 3.39644899 -9.85645121 2.77963136 -6 3 C-6 2.34 -6 1.68 -6 1 C-3.92446352 0.4465236 -2.15634036 0 0 0 Z " fill="#D0D4DE" transform="translate(332,142)"/>
<path d="M0 0 C0.33 0.66 0.66 1.32 1 2 C3.31 2 5.62 2 8 2 C8 1.34 8 0.68 8 0 C8.99 0.33 9.98 0.66 11 1 C11.94921875 3.28515625 11.94921875 3.28515625 12.6875 6.0625 C12.93886719 6.98160156 13.19023438 7.90070313 13.44921875 8.84765625 C13.63097656 9.55792969 13.81273437 10.26820313 14 11 C12.68 10.67 11.36 10.34 10 10 C9.67 8.02 9.34 6.04 9 4 C6.03 4 3.06 4 0 4 C-0.33 6.31 -0.66 8.62 -1 11 C-1.99 11 -2.98 11 -4 11 C-3.71758359 9.53984709 -3.42373386 8.08190207 -3.125 6.625 C-2.96257813 5.81289063 -2.80015625 5.00078125 -2.6328125 4.1640625 C-2 2 -2 2 0 0 Z " fill="#3A3A3A" transform="translate(534,280)"/>
<path d="M0 0 C0.66 0.33 1.32 0.66 2 1 C0.25 3 0.25 3 -2 5 C-3.32 5 -4.64 5 -6 5 C-6 5.66 -6 6.32 -6 7 C-6.99 7 -7.98 7 -9 7 C-9 7.66 -9 8.32 -9 9 C-10.32 9 -11.64 9 -13 9 C-13.33 10.32 -13.66 11.64 -14 13 C-14.99 13 -15.98 13 -17 13 C-17 13.66 -17 14.32 -17 15 C-19.97 15 -22.94 15 -26 15 C-22.8745041 12.35534962 -19.91211733 11.15585285 -16 10 C-16 9.34 -16 8.68 -16 8 C-13.36 7.34 -10.72 6.68 -8 6 C-8 5.34 -8 4.68 -8 4 C-6.71349294 3.30289269 -5.42059335 2.61757124 -4.125 1.9375 C-3.40570313 1.55464844 -2.68640625 1.17179688 -1.9453125 0.77734375 C-0.98238281 0.39255859 -0.98238281 0.39255859 0 0 Z " fill="#E2D6C5" transform="translate(322,142)"/>
<path d="M0 0 C0.66 0.33 1.32 0.66 2 1 C1 3 0 5 -1 7 C-1.38964892 12.16284825 -0.75074739 14.69448235 2 19 C1.67 19.99 1.34 20.98 1 22 C-2.97173936 18.23193958 -4.78910759 16.23545957 -5.3125 10.6875 C-4.92481505 6.11281756 -3.24719636 3.24719636 0 0 Z " fill="#434343" transform="translate(471,269)"/>
<path d="M0 0 C0 0.66 0 1.32 0 2 C-2.76203532 3.53723734 -5.53585152 5.05184161 -8.3125 6.5625 C-9.09818359 7.00013672 -9.88386719 7.43777344 -10.69335938 7.88867188 C-11.45068359 8.29794922 -12.20800781 8.70722656 -12.98828125 9.12890625 C-14.03302612 9.70233765 -14.03302612 9.70233765 -15.09887695 10.28735352 C-17 11 -17 11 -20 10 C-19.67 9.34 -19.34 8.68 -19 8 C-17.68 8 -16.36 8 -15 8 C-14.67 7.01 -14.34 6.02 -14 5 C-13.01 5 -12.02 5 -11 5 C-10.67 4.01 -10.34 3.02 -10 2 C-6.37953098 -0.81592035 -4.38787365 -1.37904601 0 0 Z " fill="#D0D2DB" transform="translate(196,162)"/>
<path d="M0 0 C2 3.75 2 3.75 2 6 C-0.64 6.33 -3.28 6.66 -6 7 C-6 7.66 -6 8.32 -6 9 C-7.65 8.67 -9.3 8.34 -11 8 C-10.25 6.0625 -10.25 6.0625 -9 4 C-6.875 3.25 -6.875 3.25 -5 3 C-5 2.34 -5 1.68 -5 1 C-3.35 0.67 -1.7 0.34 0 0 Z " fill="#EBA83A" transform="translate(249,326)"/>
<path d="M0 0 C0.33 0 0.66 0 1 0 C1 5.61 1 11.22 1 17 C-0.98 16.34 -2.96 15.68 -5 15 C-1.92482916 4.44191344 -1.92482916 4.44191344 0 0 Z " fill="#CCCCCC" transform="translate(505,274)"/>
<path d="M0 0 C1.32 0.33 2.64 0.66 4 1 C4.33 1.99 4.66 2.98 5 4 C4.01 4 3.02 4 2 4 C2 9.94 2 15.88 2 22 C1.34 22 0.68 22 0 22 C0 14.74 0 7.48 0 0 Z " fill="#343434" transform="translate(551,269)"/>
<path d="M0 0 C0 2 0 2 -1.3984375 3.4375 C-6.7064835 7.63358379 -11.30715871 9.20453936 -18 10 C-15.75333333 7.53799787 -13.49139949 6.01308 -10.5625 4.4375 C-9.80066406 4.02371094 -9.03882813 3.60992187 -8.25390625 3.18359375 C-7.51011719 2.79300781 -6.76632813 2.40242188 -6 2 C-5.28714844 1.61972656 -4.57429687 1.23945313 -3.83984375 0.84765625 C-2 0 -2 0 0 0 Z " fill="#E3D7C4" transform="translate(250,333)"/>
<path d="M0 0 C0.99 0 1.98 0 3 0 C2.67 1.65 2.34 3.3 2 5 C0.68 5 -0.64 5 -2 5 C-2 5.66 -2 6.32 -2 7 C-4.64 7 -7.28 7 -10 7 C-9.4375 5.125 -9.4375 5.125 -8 3 C-4.4375 1.8125 -4.4375 1.8125 -1 1 C-0.67 0.67 -0.34 0.34 0 0 Z " fill="#EBA83A" transform="translate(209,143)"/>
<path d="M0 0 C1.32 0 2.64 0 4 0 C5.65 3.3 7.3 6.6 9 10 C8.01 10.33 7.02 10.66 6 11 C4.02 7.535 4.02 7.535 2 4 C1.67 8.62 1.34 13.24 1 18 C0.67 18 0.34 18 0 18 C0 12.06 0 6.12 0 0 Z " fill="#5E5E5E" transform="translate(553,273)"/>
<path d="M0 0 C0.36923077 5.53846154 0.36923077 5.53846154 -1.5 7.875 C-1.995 8.24625 -2.49 8.6175 -3 9 C-2.67 7.02 -2.34 5.04 -2 3 C-2.86625 3.495 -2.86625 3.495 -3.75 4 C-6 5 -6 5 -10 5 C-10.33 5.66 -10.66 6.32 -11 7 C-11.66 6.34 -12.32 5.68 -13 5 C-4.738041 -0.74031891 -4.738041 -0.74031891 0 0 Z " fill="#DFAF58" transform="translate(214,140)"/>
<path d="M0 0 C2 0.3125 2 0.3125 4 1 C5.54163175 4.0832635 5.29747535 6.60878099 5 10 C3.25 12 3.25 12 1 13 C-1.25 12.6875 -1.25 12.6875 -3 12 C0 10 0 10 2 10 C2.40749675 5.74268432 2.40749675 5.74268432 0.5 2.125 C0.005 1.75375 -0.49 1.3825 -1 1 C-0.67 0.67 -0.34 0.34 0 0 Z " fill="#3B3B3B" transform="translate(524,269)"/>
<path d="M0 0 C0.66 0.33 1.32 0.66 2 1 C1.43410156 1.33773437 0.86820313 1.67546875 0.28515625 2.0234375 C-0.44832031 2.46945313 -1.18179688 2.91546875 -1.9375 3.375 C-3.03384766 4.03628906 -3.03384766 4.03628906 -4.15234375 4.7109375 C-6.13772272 5.8773984 -6.13772272 5.8773984 -7 8 C-8.98 8 -10.96 8 -13 8 C-13 8.66 -13 9.32 -13 10 C-14.32 9.67 -15.64 9.34 -17 9 C-14.21526125 7.46621464 -11.42121662 5.9502442 -8.625 4.4375 C-7.8309375 3.99986328 -7.036875 3.56222656 -6.21875 3.11132812 C-5.45820313 2.70205078 -4.69765625 2.29277344 -3.9140625 1.87109375 C-2.8614624 1.29766235 -2.8614624 1.29766235 -1.78759766 0.71264648 C-1.19769043 0.47747314 -0.6077832 0.2422998 0 0 Z " fill="#E1CFAF" transform="translate(192,159)"/>
<path d="M0 0 C2.95183101 2.95183101 3.08663988 5.95511947 4 10 C1.69 10 -0.62 10 -3 10 C-2.01 6.7 -1.02 3.4 0 0 Z " fill="#CCCCCC" transform="translate(538,272)"/>
<path d="M0 0 C0.33 1.32 0.66 2.64 1 4 C-1.01822917 3.73958333 -3.03645833 3.47916667 -5.0546875 3.21875 C-7.00498344 2.9627515 -7.00498344 2.9627515 -9 3 C-9.33 3.99 -9.66 4.98 -10 6 C-10.99 5.34 -11.98 4.68 -13 4 C-9.41420832 -0.98892755 -5.61771415 -0.43213186 0 0 Z " fill="#444444" transform="translate(462,269)"/>
<path d="M0 0 C-1 2 -1 2 -2.84765625 2.6328125 C-3.57855469 2.79523438 -4.30945313 2.95765625 -5.0625 3.125 C-5.79597656 3.29257813 -6.52945313 3.46015625 -7.28515625 3.6328125 C-7.85105469 3.75398437 -8.41695312 3.87515625 -9 4 C-9 4.66 -9 5.32 -9 6 C-11.30368736 7.06652192 -13.64018187 8.06421005 -16 9 C-16.66 8.67 -17.32 8.34 -18 8 C-4.57142857 -2.28571429 -4.57142857 -2.28571429 0 0 Z " fill="#E0B266" transform="translate(201,147)"/>
<path d="M0 0 C6.30693069 -0.48514851 6.30693069 -0.48514851 9.5 1.75 C11 4 11 4 10.75 6.25 C10.5025 6.8275 10.255 7.405 10 8 C9.484375 7.195625 8.96875 6.39125 8.4375 5.5625 C5.36794243 2.33552922 3.35131541 2.25103743 -1 2 C-0.67 1.34 -0.34 0.68 0 0 Z " fill="#363636" transform="translate(473,269)"/>
<path d="M0 0 C2.97 0 5.94 0 9 0 C5.80009492 2.74277578 2.99500618 4.6302836 -1 6 C-0.67 4.02 -0.34 2.04 0 0 Z " fill="#CFD1DB" transform="translate(296,157)"/>
<path d="M0 0 C2.18975773 3.28463659 2.99806563 6.20696275 4 10 C2.68 9.67 1.36 9.34 0 9 C-0.66 6.36 -1.32 3.72 -2 1 C-1.34 0.67 -0.68 0.34 0 0 Z " fill="#464646" transform="translate(544,281)"/>
<path d="M0 0 C0.99 0.33 1.98 0.66 3 1 C1.49587218 4.00825564 -0.86048301 4.30662971 -3.921875 5.40234375 C-6.35135321 6.10104707 -8.48568864 6.23571669 -11 6 C-8.12835434 3.29727467 -6.69008159 2.05208163 -2.6875 1.75 C-1.3571875 1.87375 -1.3571875 1.87375 0 2 C0 1.34 0 0.68 0 0 Z " fill="#E1D7CC" transform="translate(179,167)"/>
<path d="M0 0 C0.99 0 1.98 0 3 0 C3 0.66 3 1.32 3 2 C3.66 2 4.32 2 5 2 C5 2.66 5 3.32 5 4 C4.34 4 3.68 4 3 4 C3 4.66 3 5.32 3 6 C1.68 5.67 0.36 5.34 -1 5 C-0.67 3.35 -0.34 1.7 0 0 Z M5 1 C7 2 7 2 7 2 Z " fill="#E9AA34" transform="translate(295,149)"/>
<path d="M0 0 C1.65 0.33 3.3 0.66 5 1 C5 1.66 5 2.32 5 3 C3.6696875 3.433125 3.6696875 3.433125 2.3125 3.875 C-0.50382424 4.83148748 -3.25083156 5.86798946 -6 7 C-5.67 5.68 -5.34 4.36 -5 3 C-3.35 2.67 -1.7 2.34 0 2 C0 1.34 0 0.68 0 0 Z " fill="#E3D4C4" transform="translate(209,137)"/>
<path d="M0 0 C0.33 0 0.66 0 1 0 C1.29296875 6.0546875 1.29296875 6.0546875 1 8 C-2 10 -2 10 -5 10 C-5 10.66 -5 11.32 -5 12 C-6.32 11.67 -7.64 11.34 -9 11 C-7.88625 10.484375 -6.7725 9.96875 -5.625 9.4375 C-3.40405925 8.19467053 -2.23514102 7.47129124 -1.08984375 5.17578125 C-0.47406597 3.04770412 -0.47406597 3.04770412 0 0 Z " fill="#E5CDAF" transform="translate(214,141)"/>
<path d="M0 0 C0.66 0.33 1.32 0.66 2 1 C2 1.66 2 2.32 2 3 C3.32 3.33 4.64 3.66 6 4 C2.535 5.485 2.535 5.485 -1 7 C-1.144375 6.38125 -1.28875 5.7625 -1.4375 5.125 C-1.93152225 2.96741678 -1.93152225 2.96741678 -3 1 C-2.01 0.67 -1.02 0.34 0 0 Z " fill="#33417F" transform="translate(308,280)"/>
<path d="M0 0 C0.99 0.33 1.98 0.66 3 1 C2.67 1.33 2.34 1.66 2 2 C1.95907063 4.33297433 1.95758277 6.66705225 2 9 C3.32 9.33 4.64 9.66 6 10 C4.02 10.33 2.04 10.66 0 11 C0 7.37 0 3.74 0 0 Z " fill="#E7D8CA" transform="translate(226,334)"/>
<path d="M0 0 C0 0.66 0 1.32 0 2 C-3.27037599 5.27037599 -6.5130254 5.56856013 -11 6 C-9.73083275 3.46166551 -8.58375191 3.10599099 -6.0625 1.875 C-5.35222656 1.52179688 -4.64195312 1.16859375 -3.91015625 0.8046875 C-2 0 -2 0 0 0 Z " fill="#E1B05C" transform="translate(264,316)"/>
<path d="M0 0 C-1.45537568 0.83848804 -2.91440373 1.67063934 -4.375 2.5 C-5.59316406 3.19609375 -5.59316406 3.19609375 -6.8359375 3.90625 C-9 5 -9 5 -11 5 C-11 4.34 -11 3.68 -11 3 C-10.34 3 -9.68 3 -9 3 C-9 2.34 -9 1.68 -9 1 C-5.47051709 -0.66670026 -3.71727674 -1.13583456 0 0 Z " fill="#E0AC52" transform="translate(203,154)"/>
<path d="M0 0 C0.66 0.33 1.32 0.66 2 1 C-0.12121657 3.33333823 -2.01594365 4.9148886 -5 6 C-7.12890625 5.546875 -7.12890625 5.546875 -9 5 C-7.54735962 4.1361871 -6.0876837 3.28419546 -4.625 2.4375 C-3.40683594 1.72400391 -3.40683594 1.72400391 -2.1640625 0.99609375 C-1.44992188 0.66738281 -0.73578125 0.33867187 0 0 Z " fill="#DEB061" transform="translate(243,326)"/>
<path d="M0 0 C0.33 0.66 0.66 1.32 1 2 C0.34 2 -0.32 2 -1 2 C-1 2.99 -1 3.98 -1 5 C-3.64 5.33 -6.28 5.66 -9 6 C-6.11912454 3.59927045 -3.43595166 1.52708963 0 0 Z " fill="#C4C9DA" transform="translate(247,318)"/>
<path d="M0 0 C0.66 0 1.32 0 2 0 C1.25 7.75 1.25 7.75 -1 10 C-1.02689216 8.52093108 -1.04634621 7.04172517 -1.0625 5.5625 C-1.07410156 4.73878906 -1.08570313 3.91507812 -1.09765625 3.06640625 C-1 1 -1 1 0 0 Z " fill="#3A3A3A" transform="translate(449,274)"/>
<path d="M0 0 C1.32 0 2.64 0 4 0 C4 0.66 4 1.32 4 2 C1.03 3.32 -1.94 4.64 -5 6 C-4.67 5.01 -4.34 4.02 -4 3 C-3.01 3 -2.02 3 -1 3 C-0.67 2.01 -0.34 1.02 0 0 Z " fill="#D6D7E4" transform="translate(173,172)"/>
<path d="M0 0 C0.66 0.33 1.32 0.66 2 1 C0.375 3 0.375 3 -2 5 C-5.25 5.25 -5.25 5.25 -8 5 C-5.45378681 2.99940392 -3.01962385 1.20784954 0 0 Z " fill="#E4D1B4" transform="translate(322,142)"/>
<path d="M0 0 C-0.5625 1.9375 -0.5625 1.9375 -2 4 C-5.625 4.75 -5.625 4.75 -9 5 C-7.36885863 1.73771726 -3.62038485 0 0 0 Z " fill="#E6D0B6" transform="translate(333,137)"/>
<path d="M0 0 C0.86625 0.3403125 0.86625 0.3403125 1.75 0.6875 C1.75 2.6675 1.75 4.6475 1.75 6.6875 C1.09 5.3675 0.43 4.0475 -0.25 2.6875 C-2.23 2.6875 -4.21 2.6875 -6.25 2.6875 C-2.80384615 -0.38942308 -2.80384615 -0.38942308 0 0 Z " fill="#DEB87B" transform="translate(273.25,311.3125)"/>
<path d="M0 0 C0.66 0 1.32 0 2 0 C2.66 2.64 3.32 5.28 4 8 C3.01 8.495 3.01 8.495 2 9 C0.93347808 6.69631264 -0.06421005 4.35981813 -1 2 C-0.67 1.34 -0.34 0.68 0 0 Z " fill="#424242" transform="translate(492,269)"/>
<path d="M0 0 C0 1.65 0 3.3 0 5 C-0.99 5 -1.98 5 -3 5 C-3.66 4.34 -4.32 3.68 -5 3 C-2.25 0 -2.25 0 0 0 Z " fill="#DDD5CB" transform="translate(198,157)"/>
<path d="M0 0 C-3.96 1.98 -3.96 1.98 -8 4 C-8 2.68 -8 1.36 -8 0 C-4.71303767 -0.79953138 -3.28976808 -1.09658936 0 0 Z " fill="#C0C6D9" transform="translate(322,149)"/>
<path d="M0 0 C0.66 0.33 1.32 0.66 2 1 C0.02579865 3.52259061 -0.96745642 3.9929808 -4.1875 4.6875 C-5.5796875 4.8421875 -5.5796875 4.8421875 -7 5 C-4.63707344 2.47411298 -3.33537489 1.11179163 0 0 Z " fill="#E7CFAB" transform="translate(244,335)"/>
<path d="M0 0 C0.33 0.66 0.66 1.32 1 2 C-1.30368736 3.06652192 -3.64018187 4.06421005 -6 5 C-6.66 4.67 -7.32 4.34 -8 4 C-5.37801226 1.84622436 -3.35595828 0.59927826 0 0 Z " fill="#E1AD58" transform="translate(191,151)"/>
</svg>
