<?xml version="1.0" standalone="no"?>
<!DOCTYPE svg PUBLIC "-//W3C//DTD SVG 20010904//EN"
 "http://www.w3.org/TR/2001/REC-SVG-20010904/DTD/svg10.dtd">
<svg version="1.0" xmlns="http://www.w3.org/2000/svg"
 width="176.000000pt" height="234.000000pt" viewBox="0 0 176.000000 234.000000"
 preserveAspectRatio="xMidYMid meet">

<g transform="translate(0.000000,234.000000) scale(0.100000,-0.100000)"
fill="#000000" stroke="none">
<path d="M1455 1824 c-88 -47 -165 -90 -172 -96 -16 -13 -17 -68 -2 -68 14 0
307 158 332 178 17 15 23 57 9 66 -4 2 -80 -33 -167 -80z"/>
<path d="M514 1726 c-173 -93 -184 -100 -184 -131 0 -34 10 -37 54 -11 23 13
88 47 146 76 144 73 160 85 160 121 0 17 -5 29 -12 28 -7 -1 -81 -38 -164 -83z"/>
<path d="M1442 1701 c-78 -42 -149 -84 -157 -92 -13 -13 -15 -81 -13 -511 l3
-497 165 89 c90 49 170 97 177 106 10 14 13 125 13 501 l0 483 -22 -1 c-13 -1
-87 -36 -166 -78z"/>
<path d="M505 1603 c-88 -47 -163 -91 -167 -97 -9 -13 -11 -996 -2 -996 4 0
85 42 180 93 l174 92 0 498 c0 391 -3 497 -12 497 -7 0 -85 -39 -173 -87z"/>
<path d="M984 1197 c-83 -45 -159 -88 -168 -96 -14 -12 -16 -53 -16 -372 0
-335 1 -359 18 -359 9 1 89 40 177 88 l160 88 3 367 c2 290 0 367 -10 367 -7
-1 -81 -38 -164 -83z"/>
<path d="M1081 462 c-25 -15 -97 -54 -160 -87 -108 -57 -116 -63 -119 -93 -3
-25 0 -32 15 -32 10 0 90 40 178 88 151 83 160 90 163 120 4 41 -16 42 -77 4z"/>
</g>
</svg>
