<?xml version="1.0" standalone="no"?>
<!DOCTYPE svg PUBLIC "-//W3C//DTD SVG 20010904//EN"
 "http://www.w3.org/TR/2001/REC-SVG-20010904/DTD/svg10.dtd">
<svg version="1.0" xmlns="http://www.w3.org/2000/svg"
 width="1280.000000pt" height="571.000000pt" viewBox="0 0 1280.000000 571.000000"
 preserveAspectRatio="xMidYMid meet">

<g transform="translate(0.000000,571.000000) scale(0.100000,-0.100000)"
fill="#000000" stroke="none">
<path d="M4854 3829 c-197 -106 -194 -104 -194 -139 0 -17 5 -30 11 -30 12 0
279 143 322 172 26 19 37 60 19 72 -5 3 -75 -31 -158 -75z"/>
<path d="M4035 3796 c-11 -6 -78 -42 -150 -80 -71 -38 -138 -76 -147 -84 -18
-15 -24 -57 -10 -65 6 -4 274 133 330 169 15 10 22 24 22 44 0 32 -11 36 -45
16z"/>
<path d="M4980 3777 c-173 -90 -288 -153 -302 -165 -17 -14 -18 -51 -18 -514
l0 -499 88 47 c224 120 253 137 262 154 12 22 14 959 2 977 -6 10 -13 10 -32
0z"/>
<path d="M3900 3606 c-85 -47 -161 -89 -167 -96 -10 -8 -13 -122 -13 -505 0
-272 3 -495 7 -495 10 0 318 165 341 183 9 7 12 120 12 503 0 389 -3 494 -12
494 -7 0 -83 -38 -168 -84z"/>
<path d="M5700 3235 l0 -305 55 0 55 0 0 130 c0 154 10 185 64 196 87 16 106
-19 106 -196 l0 -130 56 0 55 0 -3 158 c-3 154 -4 160 -31 200 -45 69 -145
106 -211 78 l-36 -15 0 95 0 94 -55 0 -55 0 0 -305z"/>
<path d="M7430 3455 c0 -84 0 -85 -25 -85 -24 0 -25 -3 -25 -60 0 -57 1 -60
25 -60 24 0 25 -2 25 -67 0 -172 70 -253 220 -253 l70 0 0 55 0 55 -60 0 c-51
0 -65 4 -85 25 -22 22 -25 32 -25 104 l0 80 83 3 82 3 0 55 0 55 -82 3 -83 3
0 84 0 85 -60 0 -60 0 0 -85z"/>
<path d="M8659 3536 c-2 -2 -3 -140 -1 -305 l3 -301 54 0 55 0 0 138 c0 153 7
175 61 187 43 10 86 -11 98 -47 6 -17 11 -87 11 -154 l0 -124 55 0 55 0 0 144
c0 154 -8 189 -53 238 -51 55 -134 78 -191 54 l-36 -15 0 95 0 94 -53 0 c-30
0 -56 -2 -58 -4z"/>
<path d="M5178 3518 c0 -2 -2 -29 -3 -60 l-2 -58 89 0 88 0 0 -235 0 -235 60
0 60 0 0 235 0 235 90 0 90 0 0 60 0 60 -235 0 c-129 0 -236 -1 -237 -2z"/>
<path d="M6860 3226 l0 -296 170 0 c151 0 175 2 210 20 83 42 116 159 65 234
l-24 36 24 36 c50 73 26 173 -53 229 l-44 30 -174 3 -174 4 0 -296z m328 158
c14 -10 22 -26 22 -44 0 -47 -30 -60 -137 -60 l-93 0 0 60 0 60 93 0 c68 0 99
-4 115 -16z m3 -234 c22 -12 27 -68 7 -88 -8 -8 -48 -12 -115 -12 l-103 0 0
55 0 55 96 0 c52 0 104 -5 115 -10z"/>
<path d="M6274 3361 c-125 -57 -165 -240 -78 -357 52 -71 178 -104 262 -68 40
16 92 61 92 79 0 6 -15 26 -34 44 l-35 34 -31 -27 c-32 -26 -70 -41 -90 -34
-6 2 36 59 94 128 118 142 118 141 33 190 -63 36 -147 41 -213 11z m126 -97
c0 -3 -28 -42 -62 -86 l-63 -81 -8 29 c-13 46 11 103 53 125 33 18 80 26 80
13z"/>
<path d="M7885 3361 c-90 -41 -147 -154 -126 -252 14 -65 33 -101 72 -133 91
-77 233 -74 308 8 l25 26 -39 40 -38 39 -28 -24 c-28 -23 -85 -42 -96 -32 -3
3 40 60 96 126 56 66 101 124 101 129 0 15 -54 61 -92 76 -50 21 -134 20 -183
-3z m103 -123 c-13 -18 -41 -57 -62 -86 -21 -28 -42 -50 -47 -46 -14 8 -11 72
6 104 18 35 58 59 99 60 l28 0 -24 -32z"/>
<path d="M8334 3366 c-80 -36 -144 -134 -144 -220 0 -83 57 -171 135 -207 80
-37 197 -16 256 47 l23 25 -41 40 -40 41 -25 -25 c-71 -71 -188 -23 -188 76 0
119 122 169 195 80 l20 -24 38 39 c45 46 42 58 -26 107 -34 24 -53 30 -107 32
-40 2 -77 -2 -96 -11z"/>
<path d="M4374 3197 c-83 -45 -158 -88 -167 -96 -15 -12 -17 -51 -17 -372 0
-197 4 -360 8 -363 4 -2 84 37 177 87 l170 92 0 364 c0 234 -4 365 -10 367 -5
2 -78 -34 -161 -79z"/>
<path d="M6622 2783 c-19 -7 -42 -58 -42 -93 0 -36 38 -80 70 -80 28 0 62 19
55 30 -4 6 -14 5 -25 -2 -14 -9 -25 -9 -44 0 -22 10 -26 18 -26 55 0 57 27 86
65 69 26 -12 33 -4 13 16 -12 12 -43 15 -66 5z"/>
<path d="M6750 2770 c-73 -73 5 -202 87 -145 28 20 39 76 23 116 -21 51 -74
65 -110 29z m74 -16 c24 -23 21 -100 -3 -114 -27 -14 -37 -13 -55 6 -21 20
-20 83 1 106 20 22 37 23 57 2z"/>
<path d="M6908 2728 c-1 -35 -2 -75 0 -91 6 -48 22 -18 23 41 l0 57 21 -53
c11 -30 24 -50 28 -45 5 4 18 31 29 58 l20 50 0 -67 c1 -38 5 -68 11 -68 12 0
14 167 1 174 -12 8 -26 -12 -41 -59 -19 -62 -26 -61 -47 1 -26 79 -40 80 -45
2z"/>
<path d="M7100 2701 c0 -59 4 -90 10 -86 6 3 10 19 10 36 0 25 4 29 29 29 35
0 61 23 61 54 0 31 -17 44 -68 52 l-42 7 0 -92z m76 55 c25 -19 8 -50 -30 -54
-24 -3 -26 0 -26 32 0 40 20 48 56 22z"/>
<path d="M7265 2778 c-10 -28 -55 -162 -55 -165 0 -2 5 -3 10 -3 6 0 15 11 20
25 7 19 17 25 40 25 23 0 33 -6 40 -25 5 -14 14 -25 20 -25 14 0 13 5 -19 95
-27 77 -46 101 -56 73z m29 -50 c10 -38 7 -48 -14 -48 -11 0 -20 6 -20 13 0
23 12 57 20 57 4 0 10 -10 14 -22z"/>
<path d="M7378 2783 c-9 -17 -2 -163 7 -161 6 2 10 30 10 64 l0 60 40 -65 c57
-92 65 -90 65 13 0 103 -18 126 -22 29 l-3 -68 -40 68 c-37 64 -49 76 -57 60z"/>
<path d="M7618 2770 c-9 -14 -20 -34 -26 -45 -9 -18 -12 -16 -28 18 -10 20
-24 37 -31 37 -10 0 -6 -14 12 -50 14 -27 25 -63 25 -79 0 -16 5 -33 10 -36 6
-4 10 7 10 25 0 17 12 53 26 81 27 53 28 91 2 49z"/>
<path d="M5280 2700 c0 -7 213 -10 620 -10 407 0 620 3 620 10 0 7 -213 10
-620 10 -407 0 -620 -3 -620 -10z"/>
<path d="M7710 2700 c0 -7 212 -10 615 -10 403 0 615 3 615 10 0 7 -212 10
-615 10 -403 0 -615 -3 -615 -10z"/>
<path d="M4360 2401 c-94 -51 -167 -97 -171 -108 -8 -23 -1 -43 16 -43 8 0 87
40 177 88 154 84 163 90 166 120 2 21 -1 32 -10 32 -7 0 -87 -40 -178 -89z"/>
</g>
</svg>
